<svg width="338" height="119" viewBox="0 0 338 119" fill="none" xmlns="http://www.w3.org/2000/svg">
<path d="M37.8777 66.0554C41.1416 63.1939 45.1376 60.2096 47.2918 56.3319C56.9043 56.3319 67.1872 60.3427 76.7274 61.503C88.0376 62.8786 99.8884 65.083 111.29 65.083C117.588 65.083 125.028 63.4365 131.223 62.2986C137.757 61.0985 144.437 60.2217 150.803 58.2766C164.158 54.1958 177.525 50.4726 190.757 45.6361C219.354 35.1835 249.721 31.0406 278.622 21.3274C291.507 16.9968 304.648 13.2309 317.162 7.89136C322.072 5.79653 326.933 3.617 332.101 2.23407C336.996 0.924239 337.183 1.39299 333.427 5.50469C321.73 18.3097 309.332 30.3669 298.025 43.5588C284.572 59.2538 271.83 75.5158 258.203 91.0712C254.365 95.4521 250.335 99.7564 247.065 104.596C246.832 104.94 246.302 106.273 245.695 106.408C240.221 107.624 233.467 107.342 227.883 107.866C204.695 110.043 181.394 111.937 158.139 113.17C127.505 114.794 96.8622 115.035 66.2084 115.999C47.3682 116.591 28.2491 117.723 9.41449 116.396C8.47722 116.33 2.06392 116.428 1.94509 114.408C1.73745 110.878 2.43565 107.595 3.97818 104.419C6.64281 98.9329 8.73262 94.2739 12.9945 89.6569C20.8282 81.1703 29.2066 73.6575 37.8777 66.0554Z" fill="#FF715E" stroke="black" stroke-width="3" stroke-linecap="round"/>
</svg>
