<svg width="551" height="440" viewBox="0 0 551 440" fill="none" xmlns="http://www.w3.org/2000/svg">
<path d="M20.1327 38L61.1327 46L483.133 97C483.933 118.2 484.966 140.333 483.133 147C486.333 153.4 502.466 156 510.133 156.5C540.133 158.1 548.299 166.167 548.633 170L541.133 236.5L521.133 253.5C521.933 273.9 517.133 305.667 514.633 319L492.633 357C475.433 381 456.466 364 449.133 352.5L433.633 371.5C358.833 443.1 252.799 443 209.133 434C51.1327 384 15.5126 291.5 12.1327 236.5C6.63269 147 16.2994 158 24.6327 147L20.1327 127L6.63269 114L1.63269 50.5L20.1327 38Z" fill="#929292" stroke="black" stroke-width="3"/>
<path d="M443.133 352C431.533 272.8 468.633 229.333 488.633 217.5C525.033 217.5 517.799 288.5 509.633 324C487.233 388.8 455.966 369.667 443.133 352Z" fill="#616161" stroke="black" stroke-width="3"/>
<path d="M461.633 293.5C478.033 247.9 490.799 238.167 495.133 239C505.133 241.8 502.299 273.5 499.633 289C488.433 345 472.299 351.667 465.633 348C456.633 344 458.133 304.667 461.633 293.5Z" fill="#3C3C3C" stroke="black" stroke-width="3"/>
<path d="M506.133 193C498.533 193.8 470.633 184 457.633 179L473.133 148.5L537.133 176L517.133 254.5L491.633 262L457.633 254.5C457.633 238.833 460.733 210.9 473.133 224.5C485.533 238.1 500.299 230.167 506.133 224.5V193Z" fill="#5F5F5F" stroke="black" stroke-width="3"/>
<path d="M47.237 134.5C25.237 134.5 13.2993 182 10.6327 206C8.63266 194.4 10.9036 162 11.737 147C11.737 138.2 20.4036 129.333 24.737 126L47.237 134.5Z" fill="#5F5F5F" stroke="black" stroke-width="3"/>
<path d="M482.133 126C482.133 156.311 456.918 184.177 415.17 204.555C373.523 224.884 315.882 237.5 252.133 237.5C188.383 237.5 130.743 224.884 89.0955 204.555C47.3479 184.177 22.1327 156.311 22.1327 126C22.1327 95.6892 47.3479 67.8228 89.0955 47.4449C130.743 27.116 188.383 14.5 252.133 14.5C315.882 14.5 373.523 27.116 415.17 47.4449C456.918 67.8228 482.133 95.6892 482.133 126Z" fill="#515151" stroke="black" stroke-width="3"/>
<path d="M482.133 100.5C482.133 113.875 475.882 126.738 464.328 138.571C452.767 150.411 435.965 161.143 415.085 170.188C373.331 188.275 315.543 199.5 251.633 199.5C187.723 199.5 129.935 188.275 88.1802 170.188C67.3005 161.143 50.4984 150.411 38.9377 138.571C27.3836 126.738 21.1327 113.875 21.1327 100.5C21.1327 87.1254 27.3836 74.2622 38.9377 62.4288C50.4984 50.5885 67.3005 39.857 88.1802 30.8122C129.935 12.7245 187.723 1.5 251.633 1.5C315.543 1.5 373.331 12.7245 415.085 30.8122C435.965 39.857 452.767 50.5885 464.328 62.4288C475.882 74.2622 482.133 87.1254 482.133 100.5Z" fill="#B4B4B4" stroke="black" stroke-width="3"/>
<path d="M451.133 95.5C451.133 106.367 445.84 116.856 435.982 126.543C426.119 136.234 411.77 145.031 393.918 152.451C358.219 167.288 308.799 176.5 254.133 176.5C199.467 176.5 150.046 167.288 114.348 152.451C96.4952 145.031 82.1461 136.234 72.2831 126.543C62.4253 116.856 57.1327 106.367 57.1327 95.5C57.1327 84.633 62.4253 74.1437 72.2831 64.4572C82.1461 54.7655 96.4952 45.9686 114.348 38.5488C150.046 23.712 199.467 14.5 254.133 14.5C308.799 14.5 358.219 23.712 393.918 38.5488C411.77 45.9686 426.119 54.7655 435.982 64.4572C445.84 74.1437 451.133 84.633 451.133 95.5Z" fill="#181818" stroke="black" stroke-width="3"/>
<path d="M430.133 116C430.133 123.928 425.497 131.7 416.616 138.973C407.745 146.237 394.819 152.845 378.714 158.423C346.517 169.575 301.941 176.5 252.633 176.5C203.324 176.5 158.748 169.575 126.552 158.423C110.446 152.845 97.5199 146.237 88.6498 138.973C79.7686 131.7 75.1327 123.928 75.1327 116C75.1327 108.072 79.7686 100.3 88.6498 93.0273C97.5199 85.7635 110.446 79.1552 126.552 73.5768C158.748 62.4249 203.324 55.5 252.633 55.5C301.941 55.5 346.517 62.4249 378.714 73.5768C394.819 79.1552 407.745 85.7635 416.616 93.0273C425.497 100.3 430.133 108.072 430.133 116Z" fill="#D38C64" stroke="black" stroke-width="3"/>
</svg>
