<svg width="265" height="573" viewBox="0 0 265 573" fill="none" xmlns="http://www.w3.org/2000/svg">
<path d="M100.132 229.939C101.78 223.148 104.879 216.59 111.289 213C123.023 214.96 162.486 212.966 173.74 216.871C179.945 219.024 185.788 221.671 191.796 224.314C195.82 226.085 201.717 229.422 203.943 233.512C207.618 240.265 206.99 248.575 209.191 255.744C210.599 260.329 214.175 263.072 215.264 267.765C215.978 270.839 218.623 275.106 219.452 278.224C220.147 280.835 222.238 283.988 223.492 286.321C224.963 289.059 225.07 294.004 226.521 296.78C228.433 300.439 226.927 304.133 228.336 308.015C229.227 310.472 231.702 312.479 232.495 314.864C233.567 318.087 236.849 321.708 238.7 324.623C240.571 327.57 241.783 331.013 243.189 334.184C244.904 338.051 247.376 341.422 249.692 344.903C251.813 348.092 251.98 352.815 253.422 356.317C255.323 360.935 256.359 365.77 258.043 370.41C259.114 373.362 259.142 376.766 259.693 379.872C260.122 382.29 259.572 385.868 260.551 388.077C264.517 397.021 263.402 408.962 259.099 417.587C256.081 423.636 252.285 427.669 247.678 432.706C246.126 434.404 239.03 441.487 239.03 436.61C239.03 433.882 241.296 430.519 242.595 428.24C244.584 424.752 247.348 419.275 247.348 415.172C247.348 401.675 240.547 389.802 230.712 380.931C227.749 378.258 222.369 375.848 218.367 375.571C216.125 375.417 216.937 377.754 216.321 379.144C214.353 383.582 215.264 389.821 215.264 394.627C215.264 397.522 216.008 401.249 216.717 404.089C217.391 406.793 216.801 410.316 217.938 412.823C219.335 415.904 218.397 420.741 219.126 424.105C219.806 427.238 219.634 430.835 219.985 433.997C220.866 441.951 221.8 450.379 221.8 458.379C221.8 464.837 221.206 471.312 221.206 477.7C221.206 491.654 222.094 505.619 225.827 519.087C226.587 521.829 227.741 524.669 227.741 527.556C227.741 530.113 227.24 532.703 227.147 535.033C226.957 539.797 223.156 544.74 227.015 548.994C230.384 552.709 231.9 555.089 231.9 560.176C231.9 562.736 232.517 566.363 231.603 568.745C230.462 571.719 226.476 570.895 223.945 570.895C219.06 570.895 216.29 564.944 213.746 561.665C209.548 556.256 206.801 549.908 201.896 544.991C199.222 542.311 196.567 540.175 193.413 538.143C189.877 535.865 185.634 535.597 181.992 533.842C179.561 532.67 174.729 529.866 171.892 531.129C169.748 532.084 169.375 534.462 167.601 535.761C164.111 538.317 162.615 540.525 157.929 540.525C153.53 540.525 149.171 539.929 144.825 539.929C142.135 539.929 139.689 539.029 137.101 538.408C133.53 537.551 129.742 537.472 126.11 536.952C121.609 536.308 115.46 536.66 113.434 531.923C111.963 528.482 100.018 530.997 96.4353 530.997C93.3182 530.997 87.1715 531.385 86.9289 535.761C86.8215 537.699 84.5511 541.8 83.4961 543.238C82.0206 545.249 80.2552 546.684 78.4789 548.399C73.7815 552.932 67.713 555.412 61.3807 555.412C60.1595 555.412 56.6275 556.072 56.6275 554.486C56.6275 552.566 56.4639 549.149 58.1459 547.704C60.1734 545.962 62.9844 542.658 64.3514 540.26C65.3132 538.573 64.5736 532.121 63.4602 530.335C62.2719 528.43 62.6131 525.583 61.6777 523.52C60.6468 521.247 60.7865 517.114 60.7865 514.654C60.7865 509.868 61.961 504.759 62.701 500.031C63.3222 496.062 63.8397 492.025 64.8135 488.121C66.3452 481.98 67.3221 476.84 67.3221 470.388C67.3221 464.771 66.728 459.109 66.728 453.582C66.728 447.036 64.9455 440.511 64.9455 433.93C64.9455 425.446 64.3514 416.922 64.3514 408.357C64.3514 401.272 66.88 394.235 69.2647 387.598L69.4016 387.217C71.3052 381.917 69.6987 375.799 69.6987 370.212C69.6987 365.236 68.9152 358.833 70.5899 354.133C71.4144 351.82 71.7167 348.774 68.9725 348.774C66.3485 348.774 63.9013 348.356 61.5127 348.178C57.5132 347.882 53.6239 344.709 49.3657 345.929C46.1051 346.863 43.3841 347.889 40.2555 349.369C32.1156 353.222 21.8347 352.942 12.9248 352.942C10.5041 352.942 0.931419 352.111 2.09815 348.311C3.73696 342.973 5.48631 339.357 9.42594 335.408C12.5278 332.299 18.7166 329.889 22.7942 328.527C36.8717 323.824 48.268 313.259 61.6777 307.056C72.3738 302.108 77.6879 293.154 83.3641 283.401C87.7046 275.943 91.0158 269.14 92.7384 260.508C93.9529 254.421 97.2882 248.133 97.6236 241.915C97.8388 237.923 99.1945 233.802 100.132 229.939Z" fill="white" stroke="black" stroke-width="3" stroke-linecap="round"/>
<path d="M125.999 201.091C125.989 202.169 125.622 203.247 125.622 204.286C122.518 204.286 120.635 208.125 118.639 210.113C117.291 211.456 115.392 212.417 113.753 213.381C113.152 213.735 112.604 214.011 111.95 214.248C111.164 214.533 110.939 215 110.052 215C109.182 215 108.022 213.522 107.316 213.12C105.194 211.913 103.674 210.107 102.409 208.045C101.607 206.739 100.668 205.455 99.5778 204.37C99.0226 203.817 98.5 203.419 98.2987 202.594C97.8657 200.821 98.0156 198.7 98.068 196.872C98.1168 195.173 99.4915 193.159 100.228 191.692C101.108 189.94 101.867 189.503 103.73 188.873C105.179 188.383 105.921 186.982 107.211 186.273C108.002 185.838 109.273 186.053 110.136 186.053C111.939 186.053 114.193 186.197 115.924 186.722C117.823 187.297 119.742 187.816 121.47 188.727C122.424 189.23 122.727 190.238 123.273 191.128C124.188 192.619 124.957 193.982 125.286 195.723C125.637 197.572 126.017 199.175 125.999 201.091Z" fill="white" stroke="black" stroke-width="3" stroke-linecap="round"/>
<path d="M211.041 192.55C211.542 192.381 211.958 192.03 212.496 192C213.881 192 215.628 193.986 216.383 194.901C217.511 196.266 218.067 197.949 219.24 199.313C220.485 200.762 221.914 201.964 223.277 203.315C223.886 203.918 224.583 204.485 225.19 205.054C225.491 205.336 225.983 205.665 226.38 205.84C227.863 206.493 226.274 208.718 225.86 209.457C225.12 210.777 224.679 211.698 224.714 213.267C224.739 214.397 224.958 215.63 225.428 216.665C225.664 217.186 225.815 217.868 225.631 218.457C225.309 219.483 224.631 220.488 224.114 221.41C223.782 222.004 223.336 222.546 223.004 223.14C222.603 223.856 222.438 224.749 222.087 225.508C221.419 226.951 220.028 228.363 218.79 229.326C217.994 229.945 217.077 230.22 216.145 230.567C215.844 230.678 215.047 231.19 214.726 230.925C212.927 229.439 211.753 227.219 210.257 225.412C207.742 222.374 205.623 219.071 204.315 215.355C202.896 211.321 201.939 207.153 200.278 203.201C199.985 202.505 198.847 201.646 199.017 200.886C199.137 200.352 199.337 199.608 199.749 199.2C200.077 198.875 200.567 198.699 200.842 198.326C200.994 198.119 201.055 197.931 201.309 197.819C201.943 197.54 202.456 196.614 203.011 196.176C204.276 195.179 205.583 194.527 207.11 193.966C208.418 193.485 209.722 192.998 211.041 192.55Z" fill="white" stroke="black" stroke-width="3" stroke-linecap="round"/>
<path d="M110 221.66C110 218.511 110.371 215.659 110.653 212.564C113.017 203.134 114.451 203.787 115.554 202.691C118.157 200.103 118.476 197.363 122.415 196.971C124.907 196.723 127.215 195.287 129.64 194.986C133.747 194.475 137.869 193.296 142.019 193.073C149.276 192.683 155.772 190.191 163.219 191.268C178.321 193.452 198.912 191.279 209.178 204.767C222.376 222.108 219.219 245.845 209.831 264.18C208.538 266.705 204.695 273.23 201.772 274.286C198.457 275.485 195.07 277.769 192.043 279.628C184.385 284.331 177.685 290.331 169.971 294.933C163.625 298.719 157.181 304.329 149.86 306.122C140.009 308.535 128.898 305.718 120.455 300.78C118.026 299.36 117.213 296.155 115.554 294.139C113.428 291.555 112.062 290.445 111.96 286.92C111.868 283.702 110.653 280.52 110.653 277.21C110.653 272.24 111.307 267.42 111.307 262.447C111.307 253.138 111.458 243.817 111.307 234.51C111.237 230.211 110 225.976 110 221.66Z" fill="white" stroke="black" stroke-width="3" stroke-linecap="round"/>
<path d="M130.767 225.13C131.084 224.578 131.421 223.141 132.084 223C132.338 223.135 133.584 224.298 133.744 224.638C133.916 225.003 134.185 225.268 134.36 225.621C134.672 226.253 134.656 227.105 134.822 227.787C135.235 229.49 134.834 231.952 134.582 233.611C134.288 235.555 132.673 236.762 131.229 237.652C130.007 238.404 128.278 237.723 127.011 237.588C124.886 237.362 125.001 235.961 125.001 233.957C125.001 231.262 125.982 229.697 127.85 228.078C128.872 227.192 130.066 226.35 130.767 225.13Z" fill="black"/>
<path d="M175.362 234.606C176.484 234.488 177.709 234 178.823 234C179.956 234 182.033 234.288 182.83 235.051C183.414 235.611 184.058 236.145 184.688 236.657C184.959 236.877 185.265 237.068 185.395 237.392C185.718 238.196 185.948 239.166 185.974 240.036L185.976 240.096C186.021 241.581 186.066 243.115 185.483 244.512C184.666 246.467 183.207 248.064 181.517 249.323C179.585 250.762 177.115 251.526 174.769 250.587C173.594 250.116 172.553 249.382 171.403 248.859C170.955 248.655 170.42 248.339 170.09 247.975C168.953 246.724 168.538 245.218 168.305 243.609C168.12 242.328 167.886 241.335 168.063 240.036C168.21 238.958 168.491 237.393 169.369 236.612C170.047 236.009 171.001 235.798 171.847 235.451C172.895 235.021 174.223 234.726 175.362 234.606Z" fill="black"/>
<path d="M181.832 236.499C182.032 236.575 182.236 236.715 182.456 236.736C182.74 236.826 183.386 237.345 183.573 237.578C183.978 238.084 184.918 238.294 184.981 238.965C185.045 239.654 184.981 240.601 184.252 240.946C183.994 241.068 183.732 240.959 183.492 240.856C182.978 240.637 182.453 240.354 181.99 240.05C181.304 239.599 180.695 239.077 180.133 238.495C179.844 238.195 179.583 237.894 179.256 237.63C178.962 237.393 178.925 237.176 179.125 236.847C179.285 236.586 179.556 236.261 179.836 236.104C180.246 235.875 180.619 236.077 181.029 236.213C181.295 236.301 181.57 236.398 181.832 236.499Z" fill="white"/>
<path d="M115.167 284.792C115.167 283.006 116.193 281.345 117.438 280C118.582 280 119.878 280.148 121.03 280.3C122.869 280.543 124.749 280.614 126.549 281.106C128.414 281.617 130 282.293 131.656 283.299L131.709 283.331C132.724 283.948 133.697 284.539 134.531 285.398C135.375 286.268 136.182 287.223 136.988 288.131C137.48 288.684 137.907 289.295 138.237 289.957C139.408 292.309 139.202 294.489 137.818 296.682C137.152 297.738 136.559 299.212 135.428 299.854C134.223 300.537 133.118 301.413 131.928 302.114C130.371 303.031 128.48 303.164 126.741 302.84C124.395 302.403 121.954 301.72 120.134 300.128C117.381 297.72 115.508 293.708 115.074 290.077C114.865 288.329 115.167 286.541 115.167 284.792Z" fill="white" stroke="black" stroke-width="3" stroke-linecap="round"/>
<path d="M122.526 146.998C120.407 128.143 113.654 109.737 113.654 90.6463C111.868 87.0757 110.227 81.017 108.624 77.4121C107.849 75.6686 108.619 70.9942 107.035 69.7278C106.496 69.2962 105.525 67.3731 105.208 66.7394C104.331 64.9854 103.265 63.0914 102.551 61.1896C101.287 57.8191 99.401 54.5228 97.6409 51.3944C96.1868 48.8099 95.5613 45.9584 94.4146 43.2356C92.757 39.2997 90.7671 35.2145 91.0222 30.879C91.0725 30.0244 92.3944 28.5768 92.7303 27.6534C93.3846 25.8546 94.5173 24.2975 95.2923 22.5542C96.4396 19.9734 98.2377 16.7823 100.416 14.9884C102.449 13.3149 104.146 11.2235 106.181 9.50976C107.784 8.16027 109.81 6.92501 111.281 5.45411C114.16 2.57664 117.09 1.19111 121.506 2.48946C126.304 3.90019 131.795 3.64355 136.712 4.83747C145.463 6.96223 154.476 8.27176 163.139 10.8379C166.829 11.9309 171.142 12.843 174.811 11.5732C179.943 9.79715 185.446 8.71193 190.705 7.18547C194.031 6.22001 195.954 5.19782 199.482 5.26438C206.585 5.39835 213.711 6.64842 220.667 8.03929C223.418 8.58932 226.158 9.12393 228.899 9.72321C229.59 9.87444 230.876 9.88493 231.413 10.4822C232.316 11.4851 232.905 15.4383 233.121 16.6961C234.641 25.5363 238.185 33.9853 239.716 42.8324C240.581 47.8263 239.194 52.5341 239.194 57.5134C239.194 59.1841 238.116 60.6211 237.391 62.0434C235.775 65.2156 233.155 67.8015 231.508 71.0085C228.338 77.18 225.342 83.6691 223.608 90.4092C216.743 117.103 211.815 144.305 205.271 171.071C201.615 186.024 199.454 202.57 191.796 215.968C189.967 219.169 184.507 220 181.169 220C174.774 220 168.442 218.42 162.143 217.533C154.792 216.498 147.698 214.185 140.484 212.743C136.963 212.038 133.735 211.131 130.402 209.849C129.412 209.468 129.88 207.15 129.88 206.244C129.88 202.473 129.078 198.435 128.386 194.741C127.291 188.905 126.721 182.987 125.847 177.119C124.37 167.2 123.647 156.977 122.526 146.998Z" fill="white" stroke="black" stroke-width="3" stroke-linecap="round"/>
<path d="M131.438 227.903C131.706 227.579 132.185 227.377 132.383 227C132.671 227.308 133.264 228.092 132.868 228.349C132.584 228.533 132.368 228.757 132.044 228.844C131.887 228.886 131.769 229.012 131.598 228.999C131.471 228.99 131.339 228.982 131.213 228.966C131.134 228.957 130.978 228.912 131.003 228.793C131.064 228.496 131.25 228.129 131.438 227.903Z" stroke="white" stroke-width="3" stroke-linecap="round"/>
</svg>
