<svg width="167" height="539" viewBox="0 0 167 539" fill="none" xmlns="http://www.w3.org/2000/svg">
<path d="M19.6792 5.21066L73.376 370.563L67.6977 382.221L74.7383 421.059C84.0256 409.501 103.114 409.4 112.129 414.28C100.907 379.286 92.988 368.493 90.4313 367.471L33.9467 2.62425L19.6792 5.21066Z" fill="#EAEAEA" stroke="black" stroke-width="3"/>
<path d="M31 512C75.54 500.26 80.9047 505.9 99 506.5C162.682 505.913 166.913 532 161.153 484.617C151.639 406.351 102.343 403.508 78.8839 411.87C34.8947 434.637 28.8125 486.03 31 512Z" fill="#FDFDFD" stroke="black" stroke-width="3"/>
<path d="M29.6668 514.091C85.5 514.091 79.5677 513.499 97 514.091C158.348 513.562 161.124 534.947 155.549 481.671C146.337 406.017 98.8457 403.239 76.2517 411.307C33.8887 433.287 27.5438 488.987 29.6668 514.091Z" fill="#EAEAEA" stroke="black" stroke-width="3"/>
</svg>
