<svg width="847" height="256" viewBox="0 0 847 256" fill="none" xmlns="http://www.w3.org/2000/svg">
<path d="M94.5272 56.6888C97.753 55.7846 100.075 53.9659 103.255 52.9483C105.442 52.9483 107.406 52.389 109.567 52.0132C113.778 51.2809 117.672 52.0132 121.931 52.0132C134.355 52.0132 145.924 55.9884 157.284 60.689C163.855 63.4083 170.241 68.5335 174.765 73.9624C176.848 76.4623 177.535 78.8922 178.064 82.1966C178.315 83.7636 178.695 86.0542 179.674 87.3137C180.15 87.9256 180.869 88.8683 180.869 89.6515C180.869 93.8465 180.569 98.1404 181.103 102.301C181.548 105.776 181.273 109.301 181.337 112.796C181.372 114.713 182.344 116.354 182.272 118.302C182.164 121.225 176.807 123.513 174.895 124.848C171.861 126.967 167.198 127.568 164.868 130.563C162.181 134.018 158.713 136.521 156.556 140.381C154.357 144.318 150.64 147.77 147.673 151.161C145.139 154.057 142.692 157.051 139.958 159.785C138.515 161.228 137.281 162.982 135.802 164.46C134.324 165.938 132.658 167.835 131.516 169.63C130.571 171.115 129.826 171.591 128.399 172.487C127.293 173.181 124.814 177.677 123.723 177.578C123.434 177.552 123.211 174.897 122.892 174.409C122.201 173.352 121.264 172.669 120.554 171.604C117.267 166.673 109.134 163.986 103.956 162.149C101.282 161.2 98.0868 160.934 95.6181 159.551C94.0516 158.674 92.6995 157.921 91.0724 157.161C88.9537 156.173 87.1782 154.247 84.9163 153.577C82.9876 153.005 80.3584 153.473 78.3705 153.473C71.3638 153.473 64.438 153.005 57.4344 153.005C55.2435 153.005 52.016 152.6 49.9535 153.577C48.9105 154.071 48.0332 154.713 46.9403 155.083C39.5603 157.587 31.5849 156.746 23.8742 156.746C22.0231 156.746 20.3286 157.681 18.3934 157.681C16.6197 157.681 18.0454 146.533 18.1337 145.031C18.378 140.878 20.1831 137.275 22.1339 133.628C23.7241 130.655 24.7911 127.567 26.5757 124.692C28.8094 121.093 30.3307 117.125 32.9137 113.731C35.7396 110.016 38.5218 106.186 41.4855 102.587C46.3746 96.6504 50.8231 89.6619 54.629 82.9758C57.379 78.1448 61.3536 73.8096 65.2789 69.8843C69.8455 65.3177 75.6186 63.3551 81.3836 60.7929C85.6759 58.8852 90.0062 57.956 94.5272 56.6888Z" fill="#D9D9D9" stroke="black" stroke-width="3" stroke-linecap="round"/>
<path d="M24.6012 164.677C26.2836 162.305 27.7626 159.514 29.7237 157.357C31.3849 157.357 30.0955 157.664 31.4716 157.028C33.6629 156.017 34.8974 153.705 36.0922 151.75C36.968 150.317 37.7245 150.494 39.3803 150.193C43.3584 149.469 47.6384 149.881 51.6673 149.881C56.8298 149.881 61.9468 150.663 67.0175 151.594C70.8259 152.294 74.6864 153.019 78.4738 153.602C84.1682 154.478 90.1313 154.868 95.6238 156.751C100.097 158.285 104.291 160.264 108.534 162.341C112.127 164.101 116.514 164.859 119.592 167.464C120.497 168.229 123.288 173.278 121.773 174.49C120.564 175.457 124.385 179.741 125.043 180.72C127.966 185.062 130.115 189.402 131.758 194.426C132.801 197.614 132.623 200.963 132.07 204.204C131.859 205.438 131.753 206.507 131.204 207.648C130.855 208.372 130.378 209.176 130.339 210.001C130.259 211.676 130.241 213.452 130.356 215.124C130.45 216.489 131.131 217.752 131.273 219.035C131.416 220.318 132.329 221.846 132.693 223.101C133.53 225.996 135.002 228.092 136.258 230.768C137.586 233.6 139.645 235.817 141.847 238.019C143.389 239.561 143.873 241.494 144.599 243.505C145.807 246.851 146.28 249.733 145.049 253.058C143.588 257.003 141.078 261.092 138.853 264.652C137.175 267.338 134.937 269.613 134.077 272.752C133.4 275.224 132.499 278.241 130.633 280.106C127.131 283.609 120.365 282.879 115.716 283.654C107.794 284.974 98.6181 284.047 91.3839 287.877C87.8163 289.765 84.6275 292.618 80.6543 293.501C79.5726 293.741 79.0123 294.087 77.7989 294.107C74.8311 294.154 71.8973 294.819 68.9211 294.712C64.2108 294.544 59.6923 293.484 54.9554 293.484C50.0456 293.484 45.3516 292.49 40.4878 292.238C36.9623 292.055 33.2952 291.532 29.7929 292.168C28.709 292.366 26.6638 292.559 25.6742 292.065C24.0478 291.251 21.7321 289.519 20.5344 288.188C18.0224 285.397 15.4338 282.079 13.9755 278.532C12.7651 275.587 10.9097 272.639 9.96062 269.619C9.01745 266.618 8.61673 263.17 7.91854 260.084C7.10684 256.495 7.01161 252.834 6.20528 249.25C5.51462 246.181 4.84319 243.459 4.80352 240.286C4.75672 236.542 3.84974 232.5 3.38445 228.778C2.93798 225.206 2 221.71 2 218.1C2 214.529 2.41639 210.939 2.77876 207.388C3.14544 203.794 2.93451 200.112 2.93451 196.503C2.93451 192.208 5.0666 188.084 7.36476 184.458C8.72296 182.315 10.9003 180.712 12.5911 178.834C13.4628 177.865 14.1486 176.924 15.2562 176.186C16.1116 175.615 17.0898 175.316 17.7828 174.524C20.4773 171.445 22.2581 167.982 24.6012 164.677Z" fill="#D9D9D9" stroke="black" stroke-width="3" stroke-linecap="round"/>
<path d="M169.109 7.45317C179.211 3.99715 187.921 2 198.633 2C200.303 2 203.544 2.96527 205.061 3.51686C207.369 4.35623 209.712 4.90974 211.942 6.02443C216.233 8.17019 220.532 8.86015 223.459 12.9932C230.812 23.3739 234.659 37.5405 234.189 50.2278C233.916 57.6005 231.283 68.2619 225.938 73.7291C219.998 79.8041 209.699 86.9668 200.862 86.9668C196.888 86.9668 193.018 86.4419 189.053 86.4419C185.817 86.4419 182.688 87.0761 179.518 86.9668C175.291 86.821 171.206 85.3922 167.039 85.3922C163.196 85.3922 157.618 80.2136 154.705 78.336C145.103 72.148 134.923 68.3779 128.725 58.392C127.489 56.3999 124.787 52.736 125.051 50.2278C125.223 48.5969 128.508 45.8963 129.512 44.717C131.942 41.8646 133.82 38.5357 136.073 35.5322C140.013 30.2787 143.787 25.0042 149.194 21.0991C155.753 16.362 161.262 10.1375 169.109 7.45317Z" fill="#D9D9D9" stroke="black" stroke-width="3" stroke-linecap="round"/>
<path d="M751.345 42.9631C746.092 42.9631 741.139 45.7718 735.905 46.1744C734.786 48.4114 724.058 51.7946 721.973 52.6457C716.101 55.0425 710.049 57.0387 704.505 60.1873C699.764 62.8804 696.287 66.5881 692.698 70.6322C689.801 73.8971 687.601 77.0478 686.259 81.2392C685.065 84.9713 683.356 88.1369 683.356 92.1381C683.356 93.763 683.324 95.4795 684.232 96.8415C685.679 99.0126 687.138 101.148 688.465 103.394C690.085 106.136 692.462 108.297 694.515 110.692C697.252 113.885 699.832 117.178 702.462 120.456C708.59 128.094 713.77 136.396 719.994 143.973C723.416 148.139 725.827 152.979 729.028 157.305C731.894 161.177 735.329 163.041 739.181 165.576C740.445 166.408 741.687 167.502 743.09 168.074C744.881 168.804 746.355 170.52 748.166 171.058C749.915 171.578 751.852 170.152 753.291 169.371C754.183 168.887 754.792 167.417 755.756 166.744C757.122 165.791 758.177 164.555 759.714 163.841C764.047 161.825 769.457 161.263 774.132 160.483C777.609 159.904 781.007 159.218 784.415 158.294C786.847 157.634 789.154 157.694 791.664 157.694C796.422 157.694 800.668 159.021 805.288 159.802C813.274 161.154 821.268 165.456 829.438 162.365C830.876 161.82 832.697 161.233 833.93 160.321C835.397 159.237 836.186 157.663 837.239 156.202C839.088 153.633 841.249 151.33 842.688 148.482C843.933 146.018 844.263 143.368 844.634 140.664C844.875 138.913 845.084 136.931 844.326 135.296C843.216 132.901 842.842 130.248 841.748 127.852C839.288 122.467 835.029 118.187 832.827 112.606C829.278 103.611 824.091 95.8896 818.831 87.8401C816.466 84.2211 813.762 81.4192 810.478 78.6442C807.471 76.1032 805.358 72.7608 802.45 70.1294C799.553 67.5089 796.574 65.0691 794.016 62.0849C791.812 59.5141 789.568 57.0059 786.929 54.8676C781.343 50.3436 774.914 48.0762 768.31 45.5906C765.902 44.6844 763.23 44.6363 760.703 44.2606C757.564 43.794 754.535 42.9631 751.345 42.9631Z" fill="#D9D9D9" stroke="black" stroke-width="3" stroke-linecap="round"/>
<path d="M686.63 5.95436C684.345 5.03346 681.386 3.32983 678.86 3.32983C677.738 3.32983 673.476 5.58977 672.52 6.13625C670.332 7.38609 667.695 8.37831 665.348 9.38443C661.876 10.8724 658.105 11.9896 655.006 14.1917C650.628 17.302 645.27 20.2119 641.909 24.4819C639.637 27.3673 638.152 31.038 636.296 34.2005C633.86 38.3513 631.812 42.7436 630.241 47.2971C627.786 54.418 626.592 62.5938 628.137 70.0343C629.321 75.7393 630.25 80.978 633.724 85.8074C634.786 87.284 637.955 92.1093 640.038 92.1998C649.752 92.6222 659.583 94.3002 669.038 91.2644C673.766 89.746 678.504 88.3675 682.706 85.6515C686.134 83.4361 689.266 81.0959 692.476 78.5835C697.879 74.3554 702.055 68.6751 708.328 65.5388C711.261 64.0719 713.729 61.9545 716.591 60.3937C720.1 58.4795 724.832 57.7051 728.7 56.7558C732.821 55.7442 742.302 56.058 743.304 50.6752C744.649 43.4461 738.665 36.4733 734.027 31.8358C731.354 29.1624 729.526 25.8784 725.998 24.326C720.202 21.7761 714.876 18.2277 709.159 15.491C701.801 11.9684 694.192 9.002 686.63 5.95436Z" fill="#D9D9D9" stroke="black" stroke-width="3" stroke-linecap="round"/>
<path d="M737.908 191.954C740.558 184.834 744.711 177.868 749.816 172.196C749.816 170.19 750.6 168.772 751.779 167.256C754.375 163.919 757.479 162.379 761.326 160.687C766.742 158.303 773.174 157.302 778.955 156.329C786.029 155.139 794.248 155.148 801.209 157.061C808.171 158.973 815.114 161.889 822.398 162.017C825.321 162.068 830.036 162.03 832.577 163.647C833.501 164.235 833.719 164.918 834.373 165.759C836.893 169 838.132 174.569 838.132 178.449C838.132 183.864 836.371 188.995 836.335 194.416C836.289 201.36 836.817 207.035 839.928 213.343C841.323 216.172 843.051 219.307 842.855 222.557C842.721 224.782 842.241 227.167 841.425 229.243C840.842 230.724 840.05 232.436 838.897 233.567C837.352 235.083 834.92 235.491 833.109 236.628C827.036 240.438 821.639 245.495 817.442 251.247C815.328 254.144 813.014 256.884 810.701 259.623L810.639 259.696C809.123 261.492 807.929 263.563 806.365 265.301C804.259 267.64 801.555 268.767 798.681 269.908C796.982 270.583 795.065 271.738 793.209 271.871C790.96 272.031 788.682 270.591 786.639 269.792C784.67 269.021 782.864 267.974 780.818 267.397C777.598 266.488 774.347 265.795 771.139 264.835C768.327 263.994 765.43 263.901 762.523 263.738C758.579 263.516 754.782 262.814 750.914 262.074C746.142 261.162 741.073 261.665 736.245 261.343C734.183 261.205 729.977 261.494 729.16 259.247C727.868 255.695 728.561 252.186 728.561 248.503C728.561 245.897 728.889 243.13 729.592 240.619C730.282 238.154 731.558 235.464 731.854 232.952C732.215 229.881 733.264 226.955 733.351 223.821C733.457 220.013 733.998 216.056 734.316 212.245C734.501 210.024 734.461 207.813 734.615 205.593C734.94 200.909 736.278 196.335 737.908 191.954Z" fill="#D9D9D9" stroke="black" stroke-width="3" stroke-linecap="round"/>
</svg>
