<svg width="427" height="147" viewBox="0 0 427 147" fill="none" xmlns="http://www.w3.org/2000/svg">
<path d="M2.13269 96.5L40.6327 85V74.5L10.6327 61V32.5L57.1327 2L379.633 22.5L423.133 43.5L383.633 66.5L398.133 85L321.133 74.5L303.633 128.5L231.133 99.5L157.133 139.5L75.6327 169L40.6327 165L22.1327 148.5L46.6327 132.5V119.5H7.63269L2.13269 113V96.5Z" fill="#606060" stroke="black" stroke-width="3"/>
<path d="M128.633 183L164.633 128L232.633 100L184.633 183H128.633Z" fill="#D9D9D9" stroke="black" stroke-width="3"/>
<path d="M234.133 23L63.6327 113L80.1327 156.5L277.633 92L234.133 23Z" fill="#D9D7D7" stroke="black" stroke-width="3"/>
<path d="M56.1327 134L62.1327 116.5L80.1327 156L56.1327 134Z" fill="#D9D7D7" stroke="black" stroke-width="3"/>
<path d="M232.633 108L332.633 180.5H359.633L378.633 151L279.633 65L232.633 108Z" fill="#E2E2E2" stroke="black" stroke-width="3"/>
<path d="M262.633 95L402.133 123L413.133 72.5L275.133 40.5L262.633 95Z" fill="#AFAFAF" stroke="black" stroke-width="3"/>
<path d="M402.133 122.5L413.133 73L415.633 100.5L402.133 122.5Z" fill="#AFAFAF" stroke="black" stroke-width="3"/>
</svg>
